<?xml version="1.0" encoding="UTF-8" standalone="no"?>
<svg
   xmlns:dc="http://purl.org/dc/elements/1.1/"
   xmlns:cc="http://creativecommons.org/ns#"
   xmlns:rdf="http://www.w3.org/1999/02/22-rdf-syntax-ns#"
   xmlns:svg="http://www.w3.org/2000/svg"
   xmlns="http://www.w3.org/2000/svg"
   xmlns:sodipodi="http://sodipodi.sourceforge.net/DTD/sodipodi-0.dtd"
   xmlns:inkscape="http://www.inkscape.org/namespaces/inkscape"
   width="2200"
   height="1000"
   viewBox="0 0 2200 1200"
   version="1.1"
   id="svg14"
   sodipodi:docname="vector_doors_long.svg"
   inkscape:version="1.0.1 (1.0.1+r73)">
  <metadata
     id="metadata20">
    <rdf:RDF>
      <cc:Work
         rdf:about="">
        <dc:format>image/svg+xml</dc:format>
        <dc:type
           rdf:resource="http://purl.org/dc/dcmitype/StillImage" />
        <dc:title>Artboard@1x</dc:title>
      </cc:Work>
    </rdf:RDF>
  </metadata>
  <defs
     id="defs18" />
  <sodipodi:namedview
     pagecolor="#ffffff"
     bordercolor="#666666"
     borderopacity="1"
     objecttolerance="10"
     gridtolerance="10"
     guidetolerance="10"
     inkscape:pageopacity="0"
     inkscape:pageshadow="2"
     inkscape:window-width="2520"
     inkscape:window-height="1056"
     id="namedview16"
     showgrid="false"
     inkscape:zoom="0.41974522"
     inkscape:cx="408.66609"
     inkscape:cy="502.44099"
     inkscape:window-x="40"
     inkscape:window-y="0"
     inkscape:window-maximized="1"
     inkscape:current-layer="Door"
     inkscape:document-rotation="0" />
  <title
     id="title2">Artboard@1x</title>
  <g
     id="Artboard"
     stroke="none"
     stroke-width="1"
     fill="none"
     fill-rule="evenodd"
     transform="translate(153.89009,4.6736812)">
    <g
       id="Door"
       fill-rule="nonzero"
       transform="translate(690.13184,-0.25057053)">
      <polygon
         id="Fill-1"
         fill="#ffffff"
         points="1447.5,44 1270.5,44 1270.5,397 1447.5,397 " />
      <polygon
         id="Fill-2"
         fill="#e5f6ff"
         points="1454.5,299 1261.5,299 1261.5,404 1454.5,404 " />
      <path
         id="Fill-3"
         style="fill:#5ebefe"
         d="M -1526.4658,1337.513 0.5,1338 H 1065.7397 L 1555.5,442.24788 1447.2247,398 h -189.1339 z"
         sodipodi:nodetypes="ccccccc" />
      <polygon
         id="Fill-4"
         fill="#5ebefe"
         points="1269.9615,44.417679 1269.9615,398 1258.5,398 1258.5,33 1459.5,33 1459.5,398 1448.0385,398 1448.0385,44.417679 " />
      <polygon
         id="Fill-5"
         fill="#c8e9fe"
         points="1568.5,4.7190078 1555.9292,0 1447.5,44.042929 1447.5,397.95707 1555.9292,442 1568.5,438.85399 " />
      <polygon
         id="Fill-6"
         fill="#5ebefe"
         points="1569.5,438.85617 1569.5,5.0209865 1556.5,0 1556.5012,442 " />
      <polygon
         id="Fill-7"
         fill="#5ebefe"
         points="1536.5,209.77588 1541.5,209 1541.5,265 1536.5,264.19564 " />
      <polygon
         id="Fill-8"
         fill="#e5f6ff"
         points="1383.5963,300 1406.9585,300 1414.8464,300 1417.0117,300 1425.2822,300 1447.5,300 1447.5,200.62149 1440.2812,200.62149 1440.2812,176.06189 1436.9702,176.06189 1436.9702,160 1434.5621,160 1434.5621,176.06189 1431.2511,176.06189 1431.2511,200.62149 1428.3595,200.62149 1428.3595,195.05335 1420.7168,195.05335 1420.7168,200.62149 1414.7204,200.62149 1414.7204,178.2177 1399.4018,178.2177 1399.4018,172.23415 1389.4678,172.23415 1389.4678,178.2177 1383.5963,178.2177 1383.5963,247.03138 1373.582,247.03138 1373.582,175.35774 1360.1423,175.35774 1349.9757,175.35774 1343.9679,175.35774 1343.9679,236.64604 1327.0671,236.64604 1327.0671,220.00897 1312.5585,220.00897 1312.5585,261.00364 1300.6871,261.00364 1300.6871,208.35 1289.1641,208.35 1289.1641,203.84779 1281.6933,203.84779 1281.6933,208.35 1277.2802,208.35 1277.2802,253.37442 1269.5,253.37442 1269.5,300 1275.5628,300 1277.0029,300 1300.0043,300 1300.6871,300 1319.3786,300 1342.6939,300 1343.9679,300 1345.2556,300 1350.1854,300 1378.1647,300 " />
    </g>
  </g>
</svg>
